<svg id="artwork" xmlns="http://www.w3.org/2000/svg" viewBox="0 0 512 512"><title>Idea</title><g id="Idea"><rect x="249.25" y="434.26" width="42.96" height="29.92" style="fill:#59aee4"/><path d="M377.71,262.68a107.34,107.34,0,1,0-142.6,101.4v12.45h68.05V364.91A107.39,107.39,0,0,0,377.71,262.68Z" style="fill:#fff"/><rect x="237.59" y="376.53" width="65.57" height="29.92" style="fill:#c6d0dc"/><rect x="238.97" y="391.49" width="65.57" height="14.96" style="fill:#fff"/><rect x="249.25" y="434.26" width="42.5" height="14.96" style="fill:#548fbf"/><path d="M377.71,262.68c0-59.28-41.2-107.33-92-107.33s-92,48.05-92,107.33c0,46.92,25.81,83.81,61.78,98.4v15.45H305.8V364.91C342.87,351.05,377.71,310.52,377.71,262.68Z" style="fill:#f7c648"/><polygon points="362.56 97.25 349.94 97.25 349.94 84.63 337.94 84.63 337.94 97.25 325.31 97.25 325.31 109.25 337.94 109.25 337.94 121.87 349.94 121.87 349.94 109.25 362.56 109.25 362.56 97.25" style="fill:#ef835e"/><polygon points="451.61 297.12 438.98 297.12 438.98 284.5 426.98 284.5 426.98 297.12 414.36 297.12 414.36 309.12 426.98 309.12 426.98 321.74 438.98 321.74 438.98 309.12 451.61 309.12 451.61 297.12" style="fill:#5cacdf"/><polygon points="128.36 297.12 115.73 297.12 115.73 284.5 103.73 284.5 103.73 297.12 91.11 297.12 91.11 309.12 103.73 309.12 103.73 321.74 115.73 321.74 115.73 309.12 128.36 309.12 128.36 297.12" style="fill:#ef835e"/><polygon points="216.69 97.25 204.06 97.25 204.06 84.63 192.06 84.63 192.06 97.25 179.44 97.25 179.44 109.25 192.06 109.25 192.06 121.87 204.06 121.87 204.06 109.25 216.69 109.25 216.69 97.25"/><path d="M270.38,148.09a114.57,114.57,0,0,0-41.27,221.43v42.93h82.53V369.54a114.58,114.58,0,0,0-41.26-221.45Zm29.26,252.36H241.11V382.53h58.53Zm4.05-40.78-4.05,1.39v9.47H241.11V361l-4.05-1.39a102.52,102.52,0,1,1,66.63,0Z"/><path d="M243.25,427.72H225.3v12h17.95v31h54.5v-31h18v-12H243.25Zm42.5,31h-30.5v-19h30.5Z"/><path d="M271.76,183.36v12a66.26,66.26,0,0,1,66.18,66.18h12A78.27,78.27,0,0,0,271.76,183.36Z"/><path d="M309.67,315.79l6.89,9.83A78.8,78.8,0,0,0,345.9,286.4l-11.38-3.81A66.75,66.75,0,0,1,309.67,315.79Z"/><rect x="265.76" y="77.63" width="12" height="52.4"/><rect x="135.95" y="127.89" width="12" height="52.4" transform="translate(-67.39 145.51) rotate(-45)"/><rect x="406.78" y="241.38" width="52.4" height="12"/><rect x="366.02" y="149.35" width="52.4" height="12" transform="translate(5.02 322.82) rotate(-45)"/><rect x="83.53" y="241.38" width="52.4" height="12"/></g></svg>